PathFileType	4	(X/Y/Z)	C:\Users\Basilio\Documents\Thesis Gigler\squatting_fais\c3dfiles\038\SLS_back_pre3\markers_experimental.trc
DataRate	CameraRate	NumFrames	NumMarkers	Units	OrigDataRate	OrigDataStartFrame	OrigNumFrames
200.000000	200.000000	4	63	mm	200.000000	1643	1878
Frame#	Time	FHD			LBHD			RBHD			C7			T10			CLAV			LSHO			LUUPA			LMUPA			LDUPA			LLEP			LMEP			LRAD			LUL			LRFIN			RSHO			RUPA1			RMUPA			RDUPA			RLEP			RMEP			RRAD			RUL			RUFIN			LASI			RASI			USACR			LSACR			RSACR			LTHI1			LTHI2			LTHI3			LTHI4			LLFC			LMFC			LTIB1			LTIB2			LTIB3			LTIB4			LLMAL			LMMAL			LHEE			LMT1			LMT2			LMT5			RTHI			RTHI2			RTHI3			RTHI4			RLFC			RMFC			RTIB1			RTIB2			RTIB3			RTIB4			RLMAL			RMMAL			RHEE			RMT1			RMT2			RMT5			*61			*62			
		X1	Y1	Z1	X2	Y2	Z2	X3	Y3	Z3	X4	Y4	Z4	X5	Y5	Z5	X6	Y6	Z6	X7	Y7	Z7	X8	Y8	Z8	X9	Y9	Z9	X10	Y10	Z10	X11	Y11	Z11	X12	Y12	Z12	X13	Y13	Z13	X14	Y14	Z14	X15	Y15	Z15	X16	Y16	Z16	X17	Y17	Z17	X18	Y18	Z18	X19	Y19	Z19	X20	Y20	Z20	X21	Y21	Z21	X22	Y22	Z22	X23	Y23	Z23	X24	Y24	Z24	X25	Y25	Z25	X26	Y26	Z26	X27	Y27	Z27	X28	Y28	Z28	X29	Y29	Z29	X30	Y30	Z30	X31	Y31	Z31	X32	Y32	Z32	X33	Y33	Z33	X34	Y34	Z34	X35	Y35	Z35	X36	Y36	Z36	X37	Y37	Z37	X38	Y38	Z38	X39	Y39	Z39	X40	Y40	Z40	X41	Y41	Z41	X42	Y42	Z42	X43	Y43	Z43	X44	Y44	Z44	X45	Y45	Z45	X46	Y46	Z46	X47	Y47	Z47	X48	Y48	Z48	X49	Y49	Z49	X50	Y50	Z50	X51	Y51	Z51	X52	Y52	Z52	X53	Y53	Z53	X54	Y54	Z54	X55	Y55	Z55	X56	Y56	Z56	X57	Y57	Z57	X58	Y58	Z58	X59	Y59	Z59	X60	Y60	Z60	X61	Y61	Z61	X62	Y62	Z62	X63	Y63	Z63	

1644	8.215	-166.3023376464844	1775.052490234375	-1058.544921875	-321.8336791992188	1729.534301757813	-1124.774536132813	-319.2195739746094	1715.770629882813	-980.2575683593752	-373.5912780761719	1548.28662109375	-1053.764770507813	-371.7674255371094	1265.966064453125	-1034.02490234375	-230.5565490722657	1522.860229492188	-1060.451904296875	-289.5323486328126	1547.262939453125	-1226.30224609375	-271.2964172363282	1327.783203125	-1342.597900390625	-221.0958709716797	1331.360473632813	-1340.083984375	-228.9261627197266	1276.42578125	-1363.914672851563	-189.9928588867188	1228.823608398438	-1374.461181640625	-228.5406188964844	1181.985107421875	-1323.8623046875	30.8233871459961	1080.428466796875	-1229.153930664063	26.36178398132325	1047.774780273438	-1293.3583984375	105.3154296875	1043.392333984375	-1215.68017578125	-282.8771362304688	1543.244750976563	-896.5852050781252	-228.5393218994141	1372.043579101563	-760.9172363281251	-184.2418518066407	1357.391845703125	-776.9344482421877	-195.3896484375001	1317.329345703125	-732.9144287109376	-152.0964050292969	1259.210205078125	-711.2280883789064	-198.3190155029297	1203.796508789063	-748.9179077148439	47.09131622314454	1070.622802734375	-792.481140136719	50.89656829833986	1060.412231445313	-720.6844482421876	126.6337509155274	1036.649169921875	-786.228942871094	-202.1245574951172	1063.054931640625	-1124.631713867188	-224.391342163086	1097.57177734375	-875.9190063476565	-379.3814697265626	1131.256713867188	-1017.356140136719	-392.0880432128907	1100.969116210938	-1042.389770507813	-394.4210510253907	1105.484130859375	-986.0893554687502	-255.414535522461	742.6131591796876	-1150.85986328125	-230.9415893554688	662.4729003906251	-1135.364135742188	-185.790756225586	667.5756225585939	-1111.432739257813	-263.2141723632813	616.9967041015626	-1114.544311523438	-263.3021545410157	554.8549804687501	-1102.417724609375	-262.5827941894532	554.2927856445314	-981.6560668945315	-252.4038085937501	368.6129760742188	-1017.918823242188	-295.3015747070313	326.7983703613282	-1082.095825195313	-260.2340698242188	320.0729064941407	-1050.733764648438	-284.1722412109376	245.2422180175782	-1018.243103027344	-379.9711608886719	121.1392669677735	-1034.415649414063	-343.0438232421876	133.5399780273438	-962.8311767578127	-432.786834716797	101.731674194336	-980.3862304687502	-233.3377838134766	45.04000473022462	-974.0027465820315	-225.7027282714844	44.9087028503418	-1024.663208007813	-270.3005065917969	36.44079971313477	-1071.081665039063	-234.0682525634766	832.378845214844	-795.972595214844	-189.5503234863282	783.3120117187502	-784.5588378906252	-156.5027465820313	788.8196411132815	-789.0794677734377	-205.5474700927735	698.5723266601564	-790.7094726562502	-190.93115234375	589.4436035156251	-799.111267089844	-182.2825164794922	578.1603393554689	-909.1413574218752	-280.5359191894532	439.9449768066407	-820.9398193359377	-395.9962158203126	452.0787658691407	-805.5214843750002	-362.8312988281251	418.2582397460939	-806.2795410156252	-389.9357910156251	373.5895996093751	-835.4135742187502	-527.8394165039064	349.0481567382813	-824.8853149414065	-488.9248352050782	322.2673645019532	-896.599304199219	-591.1601562500001	344.8361816406251	-902.111999511719	-447.6079406738282	195.7910156250001	-843.7115478515627	-452.0925292968751	206.5966949462891	-797.8430175781252	-502.8677062988282	226.7440185546876	-765.4856567382814	nan	nan	nan	nan	nan	nan	
1645	8.220000000000001	-165.9501190185547	1774.985473632813	-1058.562622070313	-321.3029785156251	1729.5205078125	-1124.872680664063	-318.7652282714844	1715.66259765625	-980.3266601562502	-373.1840820312501	1548.44287109375	-1053.828979492188	-371.8844909667969	1266.037109375	-1034.110595703125	-230.8760681152344	1523.133056640625	-1060.227294921875	-289.1833190917969	1547.256958007813	-1226.539184570313	-272.7319335937501	1326.916015625	-1341.879638671875	-222.490219116211	1330.248779296875	-1339.47607421875	-231.0066223144532	1275.12353515625	-1362.847045898438	-192.2151947021485	1226.8779296875	-1373.27978515625	-231.8225555419922	1180.629760742188	-1322.641967773438	26.93091392517091	1074.984619140625	-1229.515258789063	21.41992568969727	1042.66845703125	-1293.796752929688	100.9438400268555	1036.513793945313	-1216.659790039063	-282.5674133300782	1543.23388671875	-896.3655395507815	-230.0572052001954	1370.565795898438	-761.3352050781251	-185.4095153808594	1355.782836914063	-777.0965576171877	-197.5559234619141	1315.4765625	-733.3470458984376	-154.8686065673828	1256.77587890625	-711.6723022460939	-201.5120697021485	1202.255493164063	-749.7832031250001	42.27345657348634	1065.529907226563	-791.0303344726565	45.38463973999024	1055.209838867188	-719.4260864257814	121.2864761352539	1030.398315429688	-783.9675903320315	-201.6449584960938	1063.456298828125	-1124.316284179688	-224.5579833984376	1097.562866210938	-875.961120605469	-379.6337890625001	1131.572143554688	-1017.334411621094	-392.2664184570314	1101.003662109375	-1042.413696289063	-394.5371704101564	1105.590942382813	-986.0571899414065	-255.5753173828126	742.6305541992189	-1150.839965820313	-231.0172119140626	662.5023803710939	-1135.387939453125	-185.9638061523438	667.6232299804689	-1111.415161132813	-263.3126220703126	617.0517578125001	-1114.5361328125	-263.3670959472657	554.8204345703126	-1102.451416015625	-261.9047851562501	553.9217529296876	-981.5796508789065	-252.4169311523438	368.6241149902344	-1017.938049316406	-295.6242675781251	326.4289550781251	-1082.18603515625	-260.2929687500001	320.1466064453126	-1050.734985351563	-284.1485595703126	245.236801147461	-1018.212707519531	-380.0396728515626	121.0635147094727	-1034.44921875	-343.1708679199219	133.5179901123047	-962.9285888671877	-432.7908020019532	101.728385925293	-980.431579589844	-233.4275054931641	45.11727142333985	-974.013854980469	-225.6283874511719	45.08355331420899	-1024.566772460938	-270.3214111328126	36.4191017150879	-1071.100952148438	-234.3757476806641	832.2757568359377	-796.1773071289065	-189.8123321533203	783.2760009765627	-784.793395996094	-156.8071899414063	788.760925292969	-789.257995605469	-205.8673858642579	698.5216674804689	-790.9394531250002	-191.2716674804688	588.9387207031251	-799.2940063476565	-182.7531433105469	577.7850341796876	-909.2080688476565	-279.4862365722657	438.330291748047	-820.5716552734377	-394.9995422363282	449.1971435546876	-805.2375488281252	-361.4821777343751	415.5619506835939	-805.964538574219	-387.7557678222657	370.8171081542969	-834.8643798828127	-525.4025268554689	344.2980651855469	-823.8052978515627	-486.6763305664064	318.2147216796876	-895.8825683593752	-588.9252319335939	339.2304992675782	-901.2241210937502	-443.0140075683595	192.2803497314454	-842.4949340820315	-448.0795898437501	203.0277099609376	-796.629333496094	-499.3353271484376	222.3348999023438	-765.1895751953126	nan	nan	nan	nan	nan	nan	
1646	8.225	-165.6792755126953	1774.888427734375	-1058.479370117188	-320.8058471679688	1729.525756835938	-1124.940307617188	-318.3727722167969	1715.72412109375	-980.502624511719	-372.9197998046876	1548.651611328125	-1053.996337890625	-371.8832702636719	1266.088989257813	-1034.172485351563	-230.5584106445313	1523.0537109375	-1060.275634765625	-288.8262329101563	1547.273193359375	-1226.738647460938	-274.1505432128907	1326.092163085938	-1341.21044921875	-223.9726562500001	1328.431274414063	-1338.638549804688	-232.7783355712891	1273.646118164063	-1361.971069335938	-194.8186950683594	1225.128662109375	-1372.088256835938	-234.6897430419922	1179.513549804688	-1321.208862304688	22.98488426208496	1069.767944335938	-1230.120239257813	16.46216201782227	1037.262451171875	-1294.323974609375	96.48549652099612	1030.02734375	-1217.761596679688	-282.3185424804688	1543.097778320313	-896.1201171875002	-231.3129882812501	1369.17431640625	-761.4722900390626	-187.1451568603516	1353.771362304688	-777.2993774414065	-199.3113861083985	1313.889770507813	-733.9656372070314	-157.7494354248047	1254.552734375	-712.2603149414064	-204.6288757324219	1200.786743164063	-750.7465820312501	37.43245315551759	1060.456787109375	-789.6992797851565	39.54589843750001	1050.118408203125	-717.8532714843751	116.0863265991211	1024.521240234375	-781.8845825195315	-202.5290069580079	1062.805908203125	-1124.572143554688	-224.7914428710938	1097.5078125	-875.9495239257815	-379.7961730957032	1131.618530273438	-1017.402099609375	-392.2976379394532	1101.03564453125	-1042.412719726563	-394.7021789550782	1105.652221679688	-986.1013183593752	-255.7272338867188	742.5860595703126	-1150.865844726563	-231.1912384033204	662.4772949218751	-1135.42333984375	-186.1359558105469	667.6080932617189	-1111.345825195313	-263.4306030273438	617.0087280273439	-1114.595092773438	-263.5301818847657	554.8060302734376	-1102.439697265625	-261.8245849609376	553.8502807617189	-981.6026000976565	-252.5232391357422	368.5946044921876	-1017.923583984375	-295.6392211914063	326.4102478027344	-1082.196655273438	-260.3758850097657	320.0299072265626	-1050.728515625	-284.2279663085938	245.244125366211	-1018.248107910156	-380.0331115722657	121.0713882446289	-1034.462890625	-343.2920532226563	133.3339538574219	-963.097106933594	-432.8004150390626	101.7125244140625	-980.4217529296877	-233.3552398681641	45.13843536376954	-974.0466308593752	-225.6575622558594	45.05946350097657	-1024.59228515625	-270.2937927246094	36.41512298583985	-1071.098266601563	-234.6763305664063	832.1817016601565	-796.322692871094	-190.0912475585938	783.1899414062502	-784.9725341796877	-157.1394653320313	788.662048339844	-789.3723754882815	-206.2131347656251	698.4666137695314	-791.116394042969	-191.5796813964844	588.4686889648439	-799.4212036132815	-183.2527770996094	577.3126220703126	-909.2327270507815	-278.2102355957032	436.9772949218751	-820.2854614257815	-393.7764282226564	446.2488098144532	-804.7376098632815	-359.9994506835938	413.021453857422	-805.5083007812502	-385.9026489257814	367.8170166015626	-834.3120117187502	-523.0521850585939	339.6681213378907	-822.798522949219	-483.933319091797	314.2563171386719	-894.8215942382815	-587.1135864257814	333.8406066894532	-900.019470214844	-438.6122436523439	188.6277465820313	-841.9271240234377	-443.548309326172	199.6376495361329	-796.3950195312502	-495.0711975097657	218.1477966308594	-764.2108154296876	nan	nan	nan	nan	nan	nan	
1647	8.23	-165.1033325195313	1774.878173828125	-1058.479370117188	-320.2511901855469	1729.883178710938	-1125.057495117188	-318.0011901855469	1715.795166015625	-980.5989990234377	-372.5133972167969	1548.65771484375	-1054.043212890625	-371.7894592285157	1266.22802734375	-1034.222412109375	-230.2945861816407	1522.912475585938	-1060.248901367188	-288.5987243652344	1547.262084960938	-1226.877807617188	-275.4597473144532	1325.40478515625	-1340.498046875	-225.2500915527344	1327.246704101563	-1338.06298828125	-234.6302642822266	1272.364501953125	-1360.931030273438	-197.3891906738282	1223.385009765625	-1370.896606445313	-237.2498168945313	1178.555908203125	-1319.698608398438	19.18566703796387	1064.406005859375	-1230.68896484375	11.54012107849121	1032.164794921875	-1294.83984375	91.96890258789064	1023.893249511719	-1218.922973632813	-282.0703735351563	1542.938110351563	-895.924499511719	-232.719955444336	1368.12158203125	-761.8909912109376	-188.5255279541016	1352.29443359375	-777.706726074219	-201.3370056152344	1312.022094726563	-734.4325561523439	-160.4612274169922	1252.299072265625	-712.7556762695314	-207.8194580078126	1199.259399414063	-751.8157348632814	32.70466613769532	1055.623779296875	-788.413269042969	33.84708786010743	1045.377197265625	-716.5449829101564	110.7555160522461	1018.694763183594	-779.5337524414065	-202.0062255859376	1063.232055664063	-1124.20068359375	-224.8948364257813	1097.4970703125	-875.9905395507815	-379.9507751464844	1131.6728515625	-1017.455749511719	-392.4754943847657	1101.119506835938	-1042.435424804688	-394.7923278808595	1105.711303710938	-986.1021728515627	-255.847396850586	742.8858032226564	-1150.878540039063	-231.2712860107422	662.4900512695314	-1135.457641601563	-186.2869110107422	667.6217651367189	-1111.27001953125	-263.5827026367188	617.0091552734376	-1114.591674804688	-263.4930725097657	554.7669067382814	-1102.47705078125	-261.5068969726563	553.7926635742189	-981.5740966796877	-252.5920562744141	368.5710144042969	-1017.935791015625	-295.6810913085938	326.3776550292969	-1082.204345703125	-260.3901367187501	320.0236511230469	-1050.727416992188	-284.2414245605469	245.2788848876954	-1018.225708007813	-380.0332031250001	121.0677566528321	-1034.442504882813	-343.4719848632813	133.1720428466797	-963.3770751953127	-432.7902221679689	101.7265701293946	-980.386657714844	-233.3487701416016	45.08319854736329	-974.008239746094	-225.6313018798829	45.05224990844727	-1024.623779296875	-270.2920227050782	36.3993263244629	-1071.097534179688	-234.9266357421876	832.0830078125002	-796.4367675781252	-190.4408264160157	783.0632934570315	-785.1319580078127	-157.6136779785157	788.6138305664065	-789.486999511719	-206.6302337646485	698.4384765625001	-791.362976074219	-191.7368469238282	588.1513061523439	-799.4011230468752	-183.4232940673828	577.0547485351564	-909.5739746093752	-277.1105346679688	434.8949279785157	-819.9632568359377	-392.6195373535157	443.2334289550782	-804.1685791015627	-358.4423522949219	410.5268859863282	-805.1000976562502	-383.8377380371094	365.0994262695313	-833.6643676757815	-520.8258666992189	335.2942504882813	-821.7626953125002	-481.4389038085939	309.8882751464844	-894.0679931640627	-584.5291748046876	328.1603698730469	-899.0393066406252	-434.6575927734376	185.1402130126953	-841.1275634765627	-439.3997497558595	196.0625610351563	-795.2549438476565	-490.7365112304689	213.933578491211	-763.2285766601564	nan	nan	nan	nan	nan	nan	
